<?xml version="1.0" standalone="no"?><!DOCTYPE svg PUBLIC "-//W3C//DTD SVG 1.1//EN" "http://www.w3.org/Graphics/SVG/1.1/DTD/svg11.dtd"><svg t="1711028988018" class="icon" viewBox="0 0 1027 1024" version="1.1" xmlns="http://www.w3.org/2000/svg" p-id="882" xmlns:xlink="http://www.w3.org/1999/xlink" width="200.5859375" height="200"><path d="M239.170167 0c-63.886646 0-123.946671 24.873042-169.118745 70.045116C24.879347 115.21719 0.006306 175.277214 0.006306 239.163861c0 63.886646 24.873042 123.946671 70.045116 169.118745 45.172074 45.172074 105.232099 70.045116 169.118745 70.045115h169.407734c38.465521 0 69.756126-31.290605 69.756126-69.756126v-169.407734c0-63.886646-24.873042-123.946671-70.045115-169.118745C363.106872 24.873042 303.046848 0 239.170167 0z m179.372895 408.571595c0 5.490804-4.474357 9.965161-9.965161 9.965161h-169.407734c-98.904222 0-179.372896-80.468674-179.372896-179.372895s80.468674-179.372896 179.372896-179.372896 179.372896 80.468674 179.372895 179.372896v169.407734zM615.474571 478.327721h169.407735c63.886646 0 123.946671-24.873042 169.118745-70.045115 45.172074-45.172074 70.045116-105.232099 70.045116-169.118745 0-63.886646-24.873042-123.946671-70.045116-169.118745-45.172074-45.172074-105.232099-70.045116-169.118745-70.045116-63.886646 0-123.936706 24.873042-169.10878 70.045116-45.172074 45.172074-70.045116 105.232099-70.045116 169.118745v169.407734c-0.009965 38.455556 31.28064 69.756126 69.746161 69.756126z m-9.965161-239.16386c0-98.904222 80.468674-179.372896 179.372896-179.372896s179.372896 80.468674 179.372895 179.372896-80.468674 179.372896-179.372895 179.372895h-169.407735c-5.490804 0-9.965161-4.474357-9.965161-9.965161v-169.407734zM408.577901 545.672279h-169.407734c-63.886646 0-123.946671 24.873042-169.118745 70.045115C24.879347 660.899434 0.006306 720.959458 0.006306 784.836139c0 63.876681 24.873042 123.946671 70.045116 169.118745 45.172074 45.172074 105.232099 70.045116 169.118745 70.045116 63.886646 0 123.946671-24.873042 169.118745-70.045116 45.172074-45.172074 70.045116-105.232099 70.045115-169.118745v-169.407734c0-38.455556-31.290605-69.756126-69.756126-69.756126z m9.965161 239.16386c0 98.904222-80.468674 179.372896-179.372895 179.372896s-179.372896-80.468674-179.372896-179.372896 80.468674-179.372896 179.372896-179.372895h169.407734c5.490804 0 9.965161 4.474357 9.965161 9.965161v169.407734zM784.882306 545.672279h-169.407735c-38.465521 0-69.756126 31.290605-69.756126 69.756126v169.407734c0 63.886646 24.873042 123.946671 70.045116 169.118745 45.172074 45.172074 105.232099 70.045116 169.118745 70.045116 63.886646 0 123.946671-24.873042 169.118745-70.045116 45.172074-45.172074 70.045116-105.232099 70.045116-169.118745 0-63.886646-24.873042-123.946671-70.045116-169.118745-45.172074-45.162109-105.232099-70.045116-169.118745-70.045115z m0 418.536756c-98.904222 0-179.372896-80.468674-179.372896-179.372896v-169.407734c0-5.490804 4.474357-9.965161 9.965161-9.965161h169.407735c98.904222 0 179.372896 80.468674 179.372895 179.372895s-80.468674 179.372896-179.372895 179.372896z" fill="#231815" p-id="883"></path></svg>